#!OML:ASF H:\Terrain\Walking\May29\JustinRory\Justin.ASF
:FULLY-SPECIFIED
:DEGREES
1
root 25.0161 17.0551 -20.8274 4.32905 -18.3604 7.57755
lowerback 10.6051 -1.11717 -10.5024
upperback 2.62617 -2.60835 0.501126
thorax -2.67947 -1.26616 6.77553
lowerneck -21.0309 -4.19517 -16.5706
upperneck 20.8379 -3.08597 10.4698
head 10.6064 -1.50602 6.10904
rclavicle 4.59193e-014 3.18055e-015
rhumerus -39.8148 -16.4005 -59.9251
rradius 114.062
rwrist -22.9002
rhand -49.2278 41.8561
rfingers 7.12502
rthumb -21.8478 13.0695
lclavicle 4.59193e-014 3.18055e-015
lhumerus -35.3139 14.4262 74.223
lradius 46.583
lwrist -6.67934
lhand -2.88486 37.428
lfingers 7.12502
lthumb 22.8245 66.0976
rfemur -38.3234 -10.3901 17.7378
rtibia 47.7124
rfoot -18.8456 -3.00912
rtoes -12.7572
lfemur -5.86223 3.96947 -19.0357
ltibia 28.4304
lfoot -19.0326 -1.53444
ltoes -31.4731
2
root 24.9594 17.0519 -20.6804 4.17051 -18.312 8.00215
lowerback 10.7618 -1.17766 -10.7258
upperback 2.47618 -2.73821 0.537463
thorax -2.88692 -1.31122 6.96692
lowerneck -20.5537 -4.17877 -17.3757
upperneck 20.5952 -2.9996 10.9665
head 10.4384 -1.47719 6.43488
rclavicle -1.85864e-014 -1.19271e-015
rhumerus -39.642 -15.6663 -60.1206
rradius 114.006
rwrist -22.6896
rhand -49.6303 41.2494
rfingers 7.12502
rthumb -22.2342 12.5083
lclavicle -1.85864e-014 -1.19271e-015
lhumerus -35.4945 14.5279 74.3623
lradius 46.7077
lwrist -6.75973
lhand -3.06662 37.6803
lfingers 7.12502
lthumb 22.65 66.3713
rfemur -38.1528 -10.4454 17.5805
rtibia 45.2935
rfoot -17.8357 -2.91917
rtoes -10.5796
lfemur -5.58576 4.34743 -19.4269
ltibia 29.0955
lfoot -19.5463 -1.32283
ltoes -34.2946
3
root 24.8736 17.0539 -20.6404 6.33053 -18.7639 4.70632
lowerback 10.7078 -1.12105 -7.99457
upperback 1.88901 -2.33696 1.49775
thorax -3.63513 -1.0702 6.4088
lowerneck -20.329 -4.19798 -17.9114
upperneck 20.636 -3.02404 11.4666
head 10.4325 -1.48104 6.71512
rclavicle -1.41137e-014 2.50469e-014
rhumerus -39.6761 -15.1758 -60.4211
rradius 113.943
rwrist -22.6979
rhand -50.0345 42.2189
rfingers 7.12502
rthumb -22.6222 13.5246
lclavicle -1.41137e-014 2.50469e-014
lhumerus -35.4681 14.2921 74.3886
lradius 46.7971
lwrist -6.68872
lhand -3.45368 36.7583
lfingers 7.12502
lthumb 22.2785 65.4941
rfemur -39.6175 -7.72367 21.5363
rtibia 43.101
rfoot -16.598 -5.20254
rtoes -9.95759
lfemur -6.74232 4.67749 -15.6931
ltibia 28.9807
lfoot -18.7026 -1.51046
ltoes -33.5397
4
root 24.8128 17.0994 -20.4403 5.54901 -18.7111 5.83708
lowerback 10.446 -1.11854 -8.43575
upperback 2.09218 -2.36717 1.16019
thorax -3.26634 -1.1067 6.28659
lowerneck -20.4968 -4.21707 -17.6532
upperneck 20.988 -2.99106 10.9554
head 10.5754 -1.51137 6.49542
rclavicle -2.0773e-014 4.49253e-014
rhumerus -39.6773 -14.9258 -60.4108
rradius 113.835
rwrist -22.6688
rhand -49.603 44.532
rfingers 7.12502
rthumb -22.208 15.7878
lclavicle -2.0773e-014 4.49253e-014
lhumerus -35.0828 13.7921 74.6743
lradius 46.596
lwrist -6.16159
lhand -3.69108 36.4433
lfingers 7.12502
lthumb 22.0506 65.2062
rfemur -39.0665 -8.86247 20.7312
rtibia 41.5098
rfoot -15.1106 -4.66992
rtoes -9.72753
lfemur -4.84121 4.20415 -16.9146
ltibia 28.1525
lfoot -18.6904 -1.49649
ltoes -31.9307
5
root 24.755 17.0747 -20.2691 4.87537 -18.7385 6.90232
lowerback 10.3674 -1.12415 -9.07772
upperback 2.29318 -2.43863 0.91535
thorax -2.98057 -1.15948 6.38983
lowerneck -20.5739 -4.17941 -17.5618
upperneck 20.9188 -2.87494 10.6643
head 10.5406 -1.48006 6.38217
rclavicle -3.16068e-014 -2.0276e-014
rhumerus -39.3487 -14.3953 -60.8624
rradius 114.081
rwrist -23.2555
rhand -49.9269 46.9234
rfingers 7.12502
rthumb -22.5189 18.2166
lclavicle -3.16068e-014 -2.0276e-014
lhumerus -34.709 13.7094 74.8213
lradius 46.4485
lwrist -5.7679
lhand -3.64806 36.6806
lfingers 7.12502
lthumb 22.0919 65.4385
rfemur -38.8663 -9.58798 20.0096
rtibia 40.2152
rfoot -13.2868 -4.38533
rtoes -5.58073
lfemur -3.50932 3.83938 -18.0564
ltibia 27.4401
lfoot -18.3835 -0.980751
ltoes -33.2721
6
root 24.6891 17.0648 -20.0836 3.62665 -18.7595 8.66129
lowerback 10.419 -1.05704 -10.4407
upperback 2.72493 -2.497 0.470798
thorax -2.49768 -1.22582 6.68518
lowerneck -20.6387 -4.21218 -17.9075
upperneck 20.5783 -2.86822 11.0212
head 10.4387 -1.4503 6.56494
rclavicle -7.39479e-014 -1.59028e-015
rhumerus -38.7874 -13.9221 -61.7337
rradius 114.475
rwrist -24.3322
rhand -50.8193 49.3013
rfingers 7.12502
rthumb -23.3752 20.7008
lclavicle -7.39479e-014 -1.59028e-015
lhumerus -34.3539 13.8131 74.9526
lradius 46.6301
lwrist -6.15384
lhand -4.77788 35.6813
lfingers 7.12502
lthumb 21.0068 64.5637
rfemur -38.4145 -10.746 18.6137
rtibia 39.8253
rfoot -11.8251 -3.87584
rtoes -0.491614
lfemur -1.25448 3.57987 -19.8461
ltibia 25.8387
lfoot -17.7493 -1.06783
ltoes -33.5154
7
root 24.6075 17.0762 -19.9423 4.21922 -18.7985 7.46369
lowerback 10.1658 -0.992187 -9.27652
upperback 2.76772 -2.24747 0.843919
thorax -2.39554 -1.11202 6.38494
lowerneck -20.5851 -4.27136 -17.8401
upperneck 20.3552 -2.97596 11.0353
head 10.3648 -1.48634 6.53276
rclavicle -2.78299e-014 1.03368e-014
rhumerus -38.4459 -14.0187 -62.1308
rradius 114.571
rwrist -24.375
rhand -51.1207 48.8761
rfingers 7.12502
rthumb -23.6644 20.3127
lclavicle -2.78299e-014 1.03368e-014
lhumerus -34.0134 13.3069 75.2678
lradius 46.87
lwrist -6.34444
lhand -5.61364 35.2861
lfingers 7.12502
lthumb 20.2037 64.2554
rfemur -38.8238 -10.6903 20.4968
rtibia 39.6243
rfoot -10.1519 -4.94011
rtoes 3.58194
lfemur -0.436221 3.38745 -18.4122
ltibia 24.9222
lfoot -17.0486 -1.42265
ltoes -32.6799
